<?xml version="1.0" encoding="utf-8" standalone="no"?>
<!DOCTYPE svg PUBLIC "-//W3C//DTD SVG 1.1//EN"
  "http://www.w3.org/Graphics/SVG/1.1/DTD/svg11.dtd">
<!-- Created with matplotlib (http://matplotlib.org/) -->
<svg height="648pt" version="1.1" viewBox="0 0 864 648" width="864pt" xmlns="http://www.w3.org/2000/svg" xmlns:xlink="http://www.w3.org/1999/xlink">
 <defs>
  <style type="text/css">
*{stroke-linecap:butt;stroke-linejoin:round;}
  </style>
 </defs>
 <g id="figure_1">
  <g id="patch_1">
   <path d="M 0 648 
L 864 648 
L 864 0 
L 0 0 
z
" style="fill:#ffffff;"/>
  </g>
  <g id="axes_1">
   <g id="patch_2">
    <path d="M 68.16 584.52 
L 808.42 584.52 
L 808.42 52.52 
L 68.16 52.52 
z
" style="fill:#ffffff;"/>
   </g>
   <g id="matplotlib.axis_1">
    <g id="xtick_1">
     <g id="line2d_1">
      <defs>
       <path d="M 0 0 
L 0 3.5 
" id="mf0bfaf8c42" style="stroke:#000000;stroke-width:0.8;"/>
      </defs>
      <g>
       <use style="stroke:#000000;stroke-width:0.8;" x="101.808182" xlink:href="#mf0bfaf8c42" y="584.52"/>
      </g>
     </g>
     <g id="text_1">
      <!-- 0 -->
      <defs>
       <path d="M 31.78125 3.421875 
Q 39.265625 3.421875 42.96875 11.625 
Q 46.6875 19.828125 46.6875 36.375 
Q 46.6875 52.984375 42.96875 61.1875 
Q 39.265625 69.390625 31.78125 69.390625 
Q 24.3125 69.390625 20.59375 61.1875 
Q 16.890625 52.984375 16.890625 36.375 
Q 16.890625 19.828125 20.59375 11.625 
Q 24.3125 3.421875 31.78125 3.421875 
z
M 31.78125 -1.421875 
Q 19.921875 -1.421875 13.25 8.53125 
Q 6.59375 18.5 6.59375 36.375 
Q 6.59375 54.296875 13.25 64.25 
Q 19.921875 74.21875 31.78125 74.21875 
Q 43.703125 74.21875 50.34375 64.25 
Q 56.984375 54.296875 56.984375 36.375 
Q 56.984375 18.5 50.34375 8.53125 
Q 43.703125 -1.421875 31.78125 -1.421875 
z
" id="DejaVuSerif-30"/>
      </defs>
      <g transform="translate(99.600394 596.793316)scale(0.0694 -0.0694)">
       <use xlink:href="#DejaVuSerif-30"/>
      </g>
     </g>
    </g>
    <g id="xtick_2">
     <g id="line2d_2">
      <g>
       <use style="stroke:#000000;stroke-width:0.8;" x="193.743105" xlink:href="#mf0bfaf8c42" y="584.52"/>
      </g>
     </g>
     <g id="text_2">
      <!-- 5000 -->
      <defs>
       <path d="M 50.296875 72.90625 
L 50.296875 64.890625 
L 16.890625 64.890625 
L 16.890625 44 
Q 19.4375 45.75 22.828125 46.625 
Q 26.21875 47.515625 30.421875 47.515625 
Q 42.234375 47.515625 49.0625 40.96875 
Q 55.90625 34.421875 55.90625 23.09375 
Q 55.90625 11.53125 49 5.046875 
Q 42.09375 -1.421875 29.59375 -1.421875 
Q 24.5625 -1.421875 19.28125 -0.1875 
Q 14.015625 1.03125 8.5 3.515625 
L 8.5 17.671875 
L 14.015625 17.671875 
Q 14.453125 10.75 18.421875 7.078125 
Q 22.40625 3.421875 29.59375 3.421875 
Q 37.3125 3.421875 41.453125 8.5 
Q 45.609375 13.578125 45.609375 23.09375 
Q 45.609375 32.5625 41.484375 37.609375 
Q 37.359375 42.671875 29.59375 42.671875 
Q 25.203125 42.671875 21.84375 41.109375 
Q 18.5 39.546875 15.921875 36.28125 
L 11.71875 36.28125 
L 11.71875 72.90625 
z
" id="DejaVuSerif-35"/>
      </defs>
      <g transform="translate(184.911955 596.793316)scale(0.0694 -0.0694)">
       <use xlink:href="#DejaVuSerif-35"/>
       <use x="63.623047" xlink:href="#DejaVuSerif-30"/>
       <use x="127.246094" xlink:href="#DejaVuSerif-30"/>
       <use x="190.869141" xlink:href="#DejaVuSerif-30"/>
      </g>
     </g>
    </g>
    <g id="xtick_3">
     <g id="line2d_3">
      <g>
       <use style="stroke:#000000;stroke-width:0.8;" x="285.678028" xlink:href="#mf0bfaf8c42" y="584.52"/>
      </g>
     </g>
     <g id="text_3">
      <!-- 10000 -->
      <defs>
       <path d="M 14.203125 0 
L 14.203125 5.171875 
L 26.90625 5.171875 
L 26.90625 65.828125 
L 12.203125 56.296875 
L 12.203125 62.703125 
L 29.984375 74.21875 
L 36.71875 74.21875 
L 36.71875 5.171875 
L 49.421875 5.171875 
L 49.421875 0 
z
" id="DejaVuSerif-31"/>
      </defs>
      <g transform="translate(274.63909 596.793316)scale(0.0694 -0.0694)">
       <use xlink:href="#DejaVuSerif-31"/>
       <use x="63.623047" xlink:href="#DejaVuSerif-30"/>
       <use x="127.246094" xlink:href="#DejaVuSerif-30"/>
       <use x="190.869141" xlink:href="#DejaVuSerif-30"/>
       <use x="254.492188" xlink:href="#DejaVuSerif-30"/>
      </g>
     </g>
    </g>
    <g id="xtick_4">
     <g id="line2d_4">
      <g>
       <use style="stroke:#000000;stroke-width:0.8;" x="377.612951" xlink:href="#mf0bfaf8c42" y="584.52"/>
      </g>
     </g>
     <g id="text_4">
      <!-- 15000 -->
      <g transform="translate(366.574013 596.793316)scale(0.0694 -0.0694)">
       <use xlink:href="#DejaVuSerif-31"/>
       <use x="63.623047" xlink:href="#DejaVuSerif-35"/>
       <use x="127.246094" xlink:href="#DejaVuSerif-30"/>
       <use x="190.869141" xlink:href="#DejaVuSerif-30"/>
       <use x="254.492188" xlink:href="#DejaVuSerif-30"/>
      </g>
     </g>
    </g>
    <g id="xtick_5">
     <g id="line2d_5">
      <g>
       <use style="stroke:#000000;stroke-width:0.8;" x="469.547874" xlink:href="#mf0bfaf8c42" y="584.52"/>
      </g>
     </g>
     <g id="text_5">
      <!-- 20000 -->
      <defs>
       <path d="M 12.796875 55.515625 
L 7.328125 55.515625 
L 7.328125 68.5 
Q 12.546875 71.296875 17.84375 72.75 
Q 23.140625 74.21875 28.21875 74.21875 
Q 39.59375 74.21875 46.1875 68.703125 
Q 52.78125 63.1875 52.78125 53.71875 
Q 52.78125 43.015625 37.84375 28.125 
Q 36.671875 27 36.078125 26.421875 
L 17.671875 8.015625 
L 48.09375 8.015625 
L 48.09375 17 
L 53.8125 17 
L 53.8125 0 
L 6.78125 0 
L 6.78125 5.328125 
L 28.90625 27.390625 
Q 36.234375 34.71875 39.359375 40.84375 
Q 42.484375 46.96875 42.484375 53.71875 
Q 42.484375 61.078125 38.640625 65.234375 
Q 34.8125 69.390625 28.078125 69.390625 
Q 21.09375 69.390625 17.28125 65.921875 
Q 13.484375 62.453125 12.796875 55.515625 
z
" id="DejaVuSerif-32"/>
      </defs>
      <g transform="translate(458.508936 596.793316)scale(0.0694 -0.0694)">
       <use xlink:href="#DejaVuSerif-32"/>
       <use x="63.623047" xlink:href="#DejaVuSerif-30"/>
       <use x="127.246094" xlink:href="#DejaVuSerif-30"/>
       <use x="190.869141" xlink:href="#DejaVuSerif-30"/>
       <use x="254.492188" xlink:href="#DejaVuSerif-30"/>
      </g>
     </g>
    </g>
    <g id="xtick_6">
     <g id="line2d_6">
      <g>
       <use style="stroke:#000000;stroke-width:0.8;" x="561.482797" xlink:href="#mf0bfaf8c42" y="584.52"/>
      </g>
     </g>
     <g id="text_6">
      <!-- 25000 -->
      <g transform="translate(550.443859 596.793316)scale(0.0694 -0.0694)">
       <use xlink:href="#DejaVuSerif-32"/>
       <use x="63.623047" xlink:href="#DejaVuSerif-35"/>
       <use x="127.246094" xlink:href="#DejaVuSerif-30"/>
       <use x="190.869141" xlink:href="#DejaVuSerif-30"/>
       <use x="254.492188" xlink:href="#DejaVuSerif-30"/>
      </g>
     </g>
    </g>
    <g id="xtick_7">
     <g id="line2d_7">
      <g>
       <use style="stroke:#000000;stroke-width:0.8;" x="653.41772" xlink:href="#mf0bfaf8c42" y="584.52"/>
      </g>
     </g>
     <g id="text_7">
      <!-- 30000 -->
      <defs>
       <path d="M 9.71875 69.828125 
Q 15.4375 71.96875 20.671875 73.09375 
Q 25.921875 74.21875 30.515625 74.21875 
Q 41.21875 74.21875 47.21875 69.59375 
Q 53.21875 64.984375 53.21875 56.78125 
Q 53.21875 50.203125 49.0625 45.78125 
Q 44.921875 41.359375 37.3125 39.796875 
Q 46.296875 38.53125 51.25 33.28125 
Q 56.203125 28.03125 56.203125 19.671875 
Q 56.203125 9.46875 49.34375 4.015625 
Q 42.484375 -1.421875 29.59375 -1.421875 
Q 23.875 -1.421875 18.421875 -0.1875 
Q 12.984375 1.03125 7.625 3.515625 
L 7.625 17.671875 
L 13.09375 17.671875 
Q 13.578125 10.640625 17.828125 7.03125 
Q 22.078125 3.421875 29.78125 3.421875 
Q 37.25 3.421875 41.578125 7.734375 
Q 45.90625 12.0625 45.90625 19.578125 
Q 45.90625 28.171875 41.453125 32.59375 
Q 37.015625 37.015625 28.421875 37.015625 
L 23.78125 37.015625 
L 23.78125 42 
L 26.21875 42 
Q 34.765625 42 39.03125 45.53125 
Q 43.3125 49.078125 43.3125 56.203125 
Q 43.3125 62.59375 39.796875 65.984375 
Q 36.28125 69.390625 29.6875 69.390625 
Q 23.09375 69.390625 19.453125 66.265625 
Q 15.828125 63.140625 15.1875 56.984375 
L 9.71875 56.984375 
z
" id="DejaVuSerif-33"/>
      </defs>
      <g transform="translate(642.378782 596.793316)scale(0.0694 -0.0694)">
       <use xlink:href="#DejaVuSerif-33"/>
       <use x="63.623047" xlink:href="#DejaVuSerif-30"/>
       <use x="127.246094" xlink:href="#DejaVuSerif-30"/>
       <use x="190.869141" xlink:href="#DejaVuSerif-30"/>
       <use x="254.492188" xlink:href="#DejaVuSerif-30"/>
      </g>
     </g>
    </g>
    <g id="xtick_8">
     <g id="line2d_8">
      <g>
       <use style="stroke:#000000;stroke-width:0.8;" x="745.352643" xlink:href="#mf0bfaf8c42" y="584.52"/>
      </g>
     </g>
     <g id="text_8">
      <!-- 35000 -->
      <g transform="translate(734.313705 596.793316)scale(0.0694 -0.0694)">
       <use xlink:href="#DejaVuSerif-33"/>
       <use x="63.623047" xlink:href="#DejaVuSerif-35"/>
       <use x="127.246094" xlink:href="#DejaVuSerif-30"/>
       <use x="190.869141" xlink:href="#DejaVuSerif-30"/>
       <use x="254.492188" xlink:href="#DejaVuSerif-30"/>
      </g>
     </g>
    </g>
    <g id="text_9">
     <!-- Time/s -->
     <defs>
      <path d="M 19.09375 0 
L 19.09375 5.171875 
L 28.421875 5.171875 
L 28.421875 67.09375 
L 6.984375 67.09375 
L 6.984375 55.71875 
L 0.984375 55.71875 
L 0.984375 72.90625 
L 65.71875 72.90625 
L 65.71875 55.71875 
L 59.71875 55.71875 
L 59.71875 67.09375 
L 38.28125 67.09375 
L 38.28125 5.171875 
L 47.609375 5.171875 
L 47.609375 0 
z
" id="DejaVuSerif-54"/>
      <path d="M 9.71875 68.015625 
Q 9.71875 70.265625 11.34375 71.921875 
Q 12.984375 73.578125 15.28125 73.578125 
Q 17.53125 73.578125 19.15625 71.921875 
Q 20.796875 70.265625 20.796875 68.015625 
Q 20.796875 65.71875 19.1875 64.109375 
Q 17.578125 62.5 15.28125 62.5 
Q 12.984375 62.5 11.34375 64.109375 
Q 9.71875 65.71875 9.71875 68.015625 
z
M 21.1875 5.171875 
L 29.6875 5.171875 
L 29.6875 0 
L 3.609375 0 
L 3.609375 5.171875 
L 12.203125 5.171875 
L 12.203125 46.6875 
L 3.609375 46.6875 
L 3.609375 51.90625 
L 21.1875 51.90625 
z
" id="DejaVuSerif-69"/>
      <path d="M 51.8125 41.796875 
Q 54.390625 47.515625 58.421875 50.421875 
Q 62.453125 53.328125 67.828125 53.328125 
Q 75.984375 53.328125 79.984375 48.265625 
Q 83.984375 43.21875 83.984375 33.015625 
L 83.984375 5.171875 
L 92.09375 5.171875 
L 92.09375 0 
L 67.1875 0 
L 67.1875 5.171875 
L 75 5.171875 
L 75 31.984375 
Q 75 39.9375 72.65625 43.3125 
Q 70.3125 46.6875 64.890625 46.6875 
Q 58.890625 46.6875 55.734375 42.140625 
Q 52.59375 37.59375 52.59375 28.90625 
L 52.59375 5.171875 
L 60.40625 5.171875 
L 60.40625 0 
L 35.796875 0 
L 35.796875 5.171875 
L 43.609375 5.171875 
L 43.609375 32.328125 
Q 43.609375 40.09375 41.265625 43.390625 
Q 38.921875 46.6875 33.5 46.6875 
Q 27.484375 46.6875 24.328125 42.140625 
Q 21.1875 37.59375 21.1875 28.90625 
L 21.1875 5.171875 
L 29 5.171875 
L 29 0 
L 4.109375 0 
L 4.109375 5.171875 
L 12.203125 5.171875 
L 12.203125 46.78125 
L 3.609375 46.78125 
L 3.609375 51.90625 
L 21.1875 51.90625 
L 21.1875 42.671875 
Q 23.6875 47.859375 27.53125 50.59375 
Q 31.390625 53.328125 36.28125 53.328125 
Q 42.328125 53.328125 46.375 50.3125 
Q 50.4375 47.3125 51.8125 41.796875 
z
" id="DejaVuSerif-6d"/>
      <path d="M 54.203125 25 
L 15.484375 25 
L 15.484375 24.609375 
Q 15.484375 14.109375 19.4375 8.765625 
Q 23.390625 3.421875 31.109375 3.421875 
Q 37.015625 3.421875 40.796875 6.515625 
Q 44.578125 9.625 46.09375 15.71875 
L 53.328125 15.71875 
Q 51.171875 7.171875 45.375 2.875 
Q 39.59375 -1.421875 30.171875 -1.421875 
Q 18.796875 -1.421875 11.890625 6.078125 
Q 4.984375 13.578125 4.984375 25.984375 
Q 4.984375 38.28125 11.765625 45.796875 
Q 18.5625 53.328125 29.59375 53.328125 
Q 41.359375 53.328125 47.65625 46.0625 
Q 53.953125 38.8125 54.203125 25 
z
M 43.609375 30.171875 
Q 43.3125 39.265625 39.765625 43.875 
Q 36.234375 48.484375 29.59375 48.484375 
Q 23.390625 48.484375 19.828125 43.84375 
Q 16.265625 39.203125 15.484375 30.171875 
z
" id="DejaVuSerif-65"/>
      <path d="M 25.875 72.90625 
L 33.6875 72.90625 
L 7.8125 -9.28125 
L 0 -9.28125 
z
" id="DejaVuSerif-2f"/>
      <path d="M 5.609375 2.875 
L 5.609375 14.984375 
L 10.796875 14.984375 
Q 10.984375 9.1875 14.421875 6.296875 
Q 17.875 3.421875 24.609375 3.421875 
Q 30.671875 3.421875 33.84375 5.6875 
Q 37.015625 7.953125 37.015625 12.3125 
Q 37.015625 15.71875 34.6875 17.8125 
Q 32.375 19.921875 24.90625 22.3125 
L 18.40625 24.515625 
Q 11.71875 26.65625 8.71875 29.875 
Q 5.71875 33.109375 5.71875 38.09375 
Q 5.71875 45.21875 10.9375 49.265625 
Q 16.15625 53.328125 25.390625 53.328125 
Q 29.5 53.328125 34.03125 52.25 
Q 38.578125 51.171875 43.40625 49.125 
L 43.40625 37.796875 
L 38.234375 37.796875 
Q 38.03125 42.828125 34.703125 45.65625 
Q 31.390625 48.484375 25.6875 48.484375 
Q 20.015625 48.484375 17.109375 46.484375 
Q 14.203125 44.484375 14.203125 40.484375 
Q 14.203125 37.203125 16.40625 35.21875 
Q 18.609375 33.25 25.203125 31.203125 
L 32.328125 29 
Q 39.703125 26.703125 42.9375 23.265625 
Q 46.1875 19.828125 46.1875 14.40625 
Q 46.1875 7.03125 40.546875 2.796875 
Q 34.90625 -1.421875 25 -1.421875 
Q 19.96875 -1.421875 15.1875 -0.34375 
Q 10.40625 0.734375 5.609375 2.875 
z
" id="DejaVuSerif-73"/>
     </defs>
     <g transform="translate(421.404844 609.835056)scale(0.1 -0.1)">
      <use xlink:href="#DejaVuSerif-54"/>
      <use x="66.699219" xlink:href="#DejaVuSerif-69"/>
      <use x="98.681641" xlink:href="#DejaVuSerif-6d"/>
      <use x="193.505859" xlink:href="#DejaVuSerif-65"/>
      <use x="252.685547" xlink:href="#DejaVuSerif-2f"/>
      <use x="286.376953" xlink:href="#DejaVuSerif-73"/>
     </g>
    </g>
   </g>
   <g id="matplotlib.axis_2">
    <g id="ytick_1">
     <g id="line2d_9">
      <defs>
       <path d="M 0 0 
L -3.5 0 
" id="mcd7cf5469b" style="stroke:#000000;stroke-width:0.8;"/>
      </defs>
      <g>
       <use style="stroke:#000000;stroke-width:0.8;" x="68.16" xlink:href="#mcd7cf5469b" y="560.338182"/>
      </g>
     </g>
     <g id="text_10">
      <!-- 0 -->
      <g transform="translate(56.744425 562.97484)scale(0.0694 -0.0694)">
       <use xlink:href="#DejaVuSerif-30"/>
      </g>
     </g>
    </g>
    <g id="ytick_2">
     <g id="line2d_10">
      <g>
       <use style="stroke:#000000;stroke-width:0.8;" x="68.16" xlink:href="#mcd7cf5469b" y="495.288297"/>
      </g>
     </g>
     <g id="text_11">
      <!-- 250 -->
      <g transform="translate(47.913275 497.924955)scale(0.0694 -0.0694)">
       <use xlink:href="#DejaVuSerif-32"/>
       <use x="63.623047" xlink:href="#DejaVuSerif-35"/>
       <use x="127.246094" xlink:href="#DejaVuSerif-30"/>
      </g>
     </g>
    </g>
    <g id="ytick_3">
     <g id="line2d_11">
      <g>
       <use style="stroke:#000000;stroke-width:0.8;" x="68.16" xlink:href="#mcd7cf5469b" y="430.238412"/>
      </g>
     </g>
     <g id="text_12">
      <!-- 500 -->
      <g transform="translate(47.913275 432.87507)scale(0.0694 -0.0694)">
       <use xlink:href="#DejaVuSerif-35"/>
       <use x="63.623047" xlink:href="#DejaVuSerif-30"/>
       <use x="127.246094" xlink:href="#DejaVuSerif-30"/>
      </g>
     </g>
    </g>
    <g id="ytick_4">
     <g id="line2d_12">
      <g>
       <use style="stroke:#000000;stroke-width:0.8;" x="68.16" xlink:href="#mcd7cf5469b" y="365.188527"/>
      </g>
     </g>
     <g id="text_13">
      <!-- 750 -->
      <defs>
       <path d="M 56.390625 67.921875 
L 27.875 0 
L 20.609375 0 
L 47.796875 64.890625 
L 14.109375 64.890625 
L 14.109375 55.90625 
L 8.40625 55.90625 
L 8.40625 72.90625 
L 56.390625 72.90625 
z
" id="DejaVuSerif-37"/>
      </defs>
      <g transform="translate(47.913275 367.825185)scale(0.0694 -0.0694)">
       <use xlink:href="#DejaVuSerif-37"/>
       <use x="63.623047" xlink:href="#DejaVuSerif-35"/>
       <use x="127.246094" xlink:href="#DejaVuSerif-30"/>
      </g>
     </g>
    </g>
    <g id="ytick_5">
     <g id="line2d_13">
      <g>
       <use style="stroke:#000000;stroke-width:0.8;" x="68.16" xlink:href="#mcd7cf5469b" y="300.138642"/>
      </g>
     </g>
     <g id="text_14">
      <!-- 1000 -->
      <g transform="translate(43.4977 302.7753)scale(0.0694 -0.0694)">
       <use xlink:href="#DejaVuSerif-31"/>
       <use x="63.623047" xlink:href="#DejaVuSerif-30"/>
       <use x="127.246094" xlink:href="#DejaVuSerif-30"/>
       <use x="190.869141" xlink:href="#DejaVuSerif-30"/>
      </g>
     </g>
    </g>
    <g id="ytick_6">
     <g id="line2d_14">
      <g>
       <use style="stroke:#000000;stroke-width:0.8;" x="68.16" xlink:href="#mcd7cf5469b" y="235.088757"/>
      </g>
     </g>
     <g id="text_15">
      <!-- 1250 -->
      <g transform="translate(43.4977 237.725415)scale(0.0694 -0.0694)">
       <use xlink:href="#DejaVuSerif-31"/>
       <use x="63.623047" xlink:href="#DejaVuSerif-32"/>
       <use x="127.246094" xlink:href="#DejaVuSerif-35"/>
       <use x="190.869141" xlink:href="#DejaVuSerif-30"/>
      </g>
     </g>
    </g>
    <g id="ytick_7">
     <g id="line2d_15">
      <g>
       <use style="stroke:#000000;stroke-width:0.8;" x="68.16" xlink:href="#mcd7cf5469b" y="170.038872"/>
      </g>
     </g>
     <g id="text_16">
      <!-- 1500 -->
      <g transform="translate(43.4977 172.67553)scale(0.0694 -0.0694)">
       <use xlink:href="#DejaVuSerif-31"/>
       <use x="63.623047" xlink:href="#DejaVuSerif-35"/>
       <use x="127.246094" xlink:href="#DejaVuSerif-30"/>
       <use x="190.869141" xlink:href="#DejaVuSerif-30"/>
      </g>
     </g>
    </g>
    <g id="ytick_8">
     <g id="line2d_16">
      <g>
       <use style="stroke:#000000;stroke-width:0.8;" x="68.16" xlink:href="#mcd7cf5469b" y="104.988987"/>
      </g>
     </g>
     <g id="text_17">
      <!-- 1750 -->
      <g transform="translate(43.4977 107.625645)scale(0.0694 -0.0694)">
       <use xlink:href="#DejaVuSerif-31"/>
       <use x="63.623047" xlink:href="#DejaVuSerif-37"/>
       <use x="127.246094" xlink:href="#DejaVuSerif-35"/>
       <use x="190.869141" xlink:href="#DejaVuSerif-30"/>
      </g>
     </g>
    </g>
    <g id="text_18">
     <!-- Activity/Bq -->
     <defs>
      <path d="M 20.015625 26.421875 
L 46.78125 26.421875 
L 33.40625 61.078125 
z
M -0.59375 0 
L -0.59375 5.171875 
L 5.8125 5.171875 
L 31.78125 72.90625 
L 39.984375 72.90625 
L 66.015625 5.171875 
L 73.1875 5.171875 
L 73.1875 0 
L 46.6875 0 
L 46.6875 5.171875 
L 54.78125 5.171875 
L 48.6875 21.1875 
L 18.015625 21.1875 
L 11.921875 5.171875 
L 19.921875 5.171875 
L 19.921875 0 
z
" id="DejaVuSerif-41"/>
      <path d="M 51.421875 15.578125 
Q 49.515625 7.28125 44.09375 2.921875 
Q 38.671875 -1.421875 30.078125 -1.421875 
Q 18.75 -1.421875 11.859375 6.078125 
Q 4.984375 13.578125 4.984375 25.984375 
Q 4.984375 38.421875 11.859375 45.875 
Q 18.75 53.328125 30.078125 53.328125 
Q 35.015625 53.328125 39.890625 52.171875 
Q 44.78125 51.03125 49.703125 48.6875 
L 49.703125 35.40625 
L 44.484375 35.40625 
Q 43.453125 42.234375 40.015625 45.359375 
Q 36.578125 48.484375 30.171875 48.484375 
Q 22.90625 48.484375 19.1875 42.84375 
Q 15.484375 37.203125 15.484375 25.984375 
Q 15.484375 14.75 19.171875 9.078125 
Q 22.859375 3.421875 30.171875 3.421875 
Q 35.984375 3.421875 39.453125 6.4375 
Q 42.921875 9.46875 44.1875 15.578125 
z
" id="DejaVuSerif-63"/>
      <path d="M 10.796875 46.6875 
L 2.875 46.6875 
L 2.875 51.90625 
L 10.796875 51.90625 
L 10.796875 68.015625 
L 19.828125 68.015625 
L 19.828125 51.90625 
L 36.71875 51.90625 
L 36.71875 46.6875 
L 19.828125 46.6875 
L 19.828125 13.71875 
Q 19.828125 7.125 21.09375 5.265625 
Q 22.359375 3.421875 25.78125 3.421875 
Q 29.296875 3.421875 30.90625 5.484375 
Q 32.515625 7.5625 32.625 12.203125 
L 39.40625 12.203125 
Q 39.015625 5.125 35.546875 1.84375 
Q 32.078125 -1.421875 25 -1.421875 
Q 17.234375 -1.421875 14.015625 2.015625 
Q 10.796875 5.46875 10.796875 13.71875 
z
" id="DejaVuSerif-74"/>
      <path d="M 24.703125 0 
L 5.609375 46.6875 
L -0.296875 46.6875 
L -0.296875 51.90625 
L 23.578125 51.90625 
L 23.578125 46.6875 
L 15.28125 46.6875 
L 29.890625 10.984375 
L 44.484375 46.6875 
L 36.71875 46.6875 
L 36.71875 51.90625 
L 56.203125 51.90625 
L 56.203125 46.6875 
L 50.390625 46.6875 
L 31.296875 0 
z
" id="DejaVuSerif-76"/>
      <path d="M 21.578125 -9.515625 
L 25 -0.875 
L 5.609375 46.6875 
L -0.296875 46.6875 
L -0.296875 51.90625 
L 23.578125 51.90625 
L 23.578125 46.6875 
L 15.28125 46.6875 
L 29.890625 10.984375 
L 44.484375 46.6875 
L 36.71875 46.6875 
L 36.71875 51.90625 
L 56.203125 51.90625 
L 56.203125 46.6875 
L 50.390625 46.6875 
L 26.609375 -11.71875 
Q 24.171875 -17.78125 21.1875 -20 
Q 18.21875 -22.21875 12.796875 -22.21875 
Q 10.5 -22.21875 8.078125 -21.828125 
Q 5.671875 -21.4375 3.21875 -20.703125 
L 3.21875 -10.796875 
L 7.8125 -10.796875 
Q 8.109375 -14.109375 9.5 -15.546875 
Q 10.890625 -17 13.8125 -17 
Q 16.5 -17 18.140625 -15.5 
Q 19.78125 -14.015625 21.578125 -9.515625 
z
" id="DejaVuSerif-79"/>
      <path d="M 24.703125 5.171875 
L 39.3125 5.171875 
Q 48.09375 5.171875 52.140625 8.984375 
Q 56.203125 12.796875 56.203125 21.09375 
Q 56.203125 29.34375 52.171875 33.125 
Q 48.140625 36.921875 39.3125 36.921875 
L 24.703125 36.921875 
z
M 24.703125 42.09375 
L 37.109375 42.09375 
Q 45.125 42.09375 48.796875 45.171875 
Q 52.484375 48.25 52.484375 54.890625 
Q 52.484375 61.578125 48.796875 64.625 
Q 45.125 67.671875 37.109375 67.671875 
L 24.703125 67.671875 
z
M 5.515625 0 
L 5.515625 5.171875 
L 14.796875 5.171875 
L 14.796875 67.671875 
L 5.515625 67.671875 
L 5.515625 72.90625 
L 41.5 72.90625 
Q 52.546875 72.90625 58.125 68.390625 
Q 63.71875 63.875 63.71875 54.890625 
Q 63.71875 48.390625 59.828125 44.53125 
Q 55.953125 40.671875 48.484375 39.796875 
Q 57.765625 38.625 62.578125 33.859375 
Q 67.390625 29.109375 67.390625 21.09375 
Q 67.390625 10.25 60.546875 5.125 
Q 53.71875 0 39.203125 0 
z
" id="DejaVuSerif-42"/>
      <path d="M 52.484375 46.6875 
L 52.484375 -15.578125 
L 61.078125 -15.578125 
L 61.078125 -20.796875 
L 35.015625 -20.796875 
L 35.015625 -15.578125 
L 43.5 -15.578125 
L 43.5 8.109375 
Q 40.875 3.21875 36.796875 0.890625 
Q 32.71875 -1.421875 26.703125 -1.421875 
Q 17.140625 -1.421875 11.0625 6.171875 
Q 4.984375 13.765625 4.984375 25.984375 
Q 4.984375 38.1875 11.03125 45.75 
Q 17.09375 53.328125 26.703125 53.328125 
Q 32.71875 53.328125 36.796875 51 
Q 40.875 48.6875 43.5 43.796875 
L 43.5 51.90625 
L 61.078125 51.90625 
L 61.078125 46.6875 
z
M 43.5 28.515625 
Q 43.5 37.84375 39.90625 42.765625 
Q 36.328125 47.703125 29.5 47.703125 
Q 22.5625 47.703125 19.015625 42.234375 
Q 15.484375 36.765625 15.484375 25.984375 
Q 15.484375 15.234375 19.015625 9.71875 
Q 22.5625 4.203125 29.5 4.203125 
Q 36.328125 4.203125 39.90625 9.109375 
Q 43.5 14.015625 43.5 23.390625 
z
" id="DejaVuSerif-71"/>
     </defs>
     <g transform="translate(37.275825 346.3575)rotate(-90)scale(0.1 -0.1)">
      <use xlink:href="#DejaVuSerif-41"/>
      <use x="72.216797" xlink:href="#DejaVuSerif-63"/>
      <use x="128.222656" xlink:href="#DejaVuSerif-74"/>
      <use x="168.408203" xlink:href="#DejaVuSerif-69"/>
      <use x="200.390625" xlink:href="#DejaVuSerif-76"/>
      <use x="256.884766" xlink:href="#DejaVuSerif-69"/>
      <use x="288.867188" xlink:href="#DejaVuSerif-74"/>
      <use x="329.052734" xlink:href="#DejaVuSerif-79"/>
      <use x="385.546875" xlink:href="#DejaVuSerif-2f"/>
      <use x="419.238281" xlink:href="#DejaVuSerif-42"/>
      <use x="492.724609" xlink:href="#DejaVuSerif-71"/>
     </g>
    </g>
   </g>
   <g id="line2d_17">
    <path clip-path="url(#p5721ffc229)" d="M 101.808182 560.338182 
L 215.473178 476.591532 
L 329.138173 393.135572 
L 442.803169 309.969293 
L 556.468165 227.091688 
L 670.13316 144.501757 
L 763.795066 76.702638 
L 774.771818 76.86501 
L 774.771818 76.86501 
" style="fill:none;stroke:#000000;stroke-linecap:square;stroke-width:1.5;"/>
   </g>
   <g id="patch_3">
    <path d="M 68.16 584.52 
L 68.16 52.52 
" style="fill:none;stroke:#000000;stroke-linecap:square;stroke-linejoin:miter;stroke-width:0.8;"/>
   </g>
   <g id="patch_4">
    <path d="M 808.42 584.52 
L 808.42 52.52 
" style="fill:none;stroke:#000000;stroke-linecap:square;stroke-linejoin:miter;stroke-width:0.8;"/>
   </g>
   <g id="patch_5">
    <path d="M 68.16 584.52 
L 808.42 584.52 
" style="fill:none;stroke:#000000;stroke-linecap:square;stroke-linejoin:miter;stroke-width:0.8;"/>
   </g>
   <g id="patch_6">
    <path d="M 68.16 52.52 
L 808.42 52.52 
" style="fill:none;stroke:#000000;stroke-linecap:square;stroke-linejoin:miter;stroke-width:0.8;"/>
   </g>
  </g>
  <g id="text_19">
   <!-- Activity vs Time P 32 -->
   <defs>
    <path id="DejaVuSerif-20"/>
    <path d="M 24.703125 37.109375 
L 37.59375 37.109375 
Q 44.875 37.109375 48.671875 41.03125 
Q 52.484375 44.96875 52.484375 52.390625 
Q 52.484375 59.859375 48.671875 63.765625 
Q 44.875 67.671875 37.59375 67.671875 
L 24.703125 67.671875 
z
M 5.515625 0 
L 5.515625 5.171875 
L 14.796875 5.171875 
L 14.796875 67.671875 
L 5.515625 67.671875 
L 5.515625 72.90625 
L 39.984375 72.90625 
Q 50.921875 72.90625 57.3125 67.359375 
Q 63.71875 61.8125 63.71875 52.390625 
Q 63.71875 43.015625 57.3125 37.453125 
Q 50.921875 31.890625 39.984375 31.890625 
L 24.703125 31.890625 
L 24.703125 5.171875 
L 35.984375 5.171875 
L 35.984375 0 
z
" id="DejaVuSerif-50"/>
   </defs>
   <g transform="translate(367.935938 21.9075)scale(0.12 -0.12)">
    <use xlink:href="#DejaVuSerif-41"/>
    <use x="72.216797" xlink:href="#DejaVuSerif-63"/>
    <use x="128.222656" xlink:href="#DejaVuSerif-74"/>
    <use x="168.408203" xlink:href="#DejaVuSerif-69"/>
    <use x="200.390625" xlink:href="#DejaVuSerif-76"/>
    <use x="256.884766" xlink:href="#DejaVuSerif-69"/>
    <use x="288.867188" xlink:href="#DejaVuSerif-74"/>
    <use x="329.052734" xlink:href="#DejaVuSerif-79"/>
    <use x="385.546875" xlink:href="#DejaVuSerif-20"/>
    <use x="417.333984" xlink:href="#DejaVuSerif-76"/>
    <use x="473.828125" xlink:href="#DejaVuSerif-73"/>
    <use x="525.146484" xlink:href="#DejaVuSerif-20"/>
    <use x="556.933594" xlink:href="#DejaVuSerif-54"/>
    <use x="623.632812" xlink:href="#DejaVuSerif-69"/>
    <use x="655.615234" xlink:href="#DejaVuSerif-6d"/>
    <use x="750.439453" xlink:href="#DejaVuSerif-65"/>
    <use x="809.619141" xlink:href="#DejaVuSerif-20"/>
    <use x="841.40625" xlink:href="#DejaVuSerif-50"/>
    <use x="908.691406" xlink:href="#DejaVuSerif-20"/>
    <use x="940.478516" xlink:href="#DejaVuSerif-33"/>
    <use x="1004.101562" xlink:href="#DejaVuSerif-32"/>
   </g>
  </g>
 </g>
 <defs>
  <clipPath id="p5721ffc229">
   <rect height="532" width="740.26" x="68.16" y="52.52"/>
  </clipPath>
 </defs>
</svg>
